<?xml version="1.0" standalone="no"?><!DOCTYPE svg PUBLIC "-//W3C//DTD SVG 1.1//EN" "http://www.w3.org/Graphics/SVG/1.1/DTD/svg11.dtd"><svg t="1713947507709" class="icon" viewBox="0 0 1024 1024" version="1.1" xmlns="http://www.w3.org/2000/svg" p-id="5942" xmlns:xlink="http://www.w3.org/1999/xlink" width="200" height="200"><path d="M0 819.2h1024V1024H0z" fill="#FFFFFF" p-id="5943"></path><path d="M98.986667 819.2h34.133333v68.266667h-34.133333zM197.973333 819.2h34.133334v102.4h-34.133334zM296.96 819.2h34.133333v68.266667h-34.133333zM395.946667 819.2h34.133333v102.4h-34.133333zM494.933333 819.2h34.133334v68.266667h-34.133334zM593.92 819.2h34.133333v102.4h-34.133333zM692.906667 819.2h34.133333v68.266667h-34.133333zM791.893333 819.2h34.133334v102.4h-34.133334zM890.88 819.2h34.133333v68.266667h-34.133333z" fill="#292C33" p-id="5944"></path><path d="M899.413333 819.2h34.133334v68.266667h-34.133334z" fill="#292C33" p-id="5945"></path><path d="M1024 682.666667H163.413333L786.773333 51.2 741.546667 0 0 750.933333h1024V682.666667z" fill="#265771" p-id="5946"></path><path d="M782.08 682.666667A782.506667 782.506667 0 0 0 597.333333 242.346667L163.413333 682.666667z" fill="#B2B2B2" p-id="5947"></path><path d="M0 819.2h1024V1024H0z" fill="#265771" p-id="5948"></path><path d="M197.973333 819.2h34.133334v102.4h-34.133334zM296.96 819.2h34.133333v68.266667h-34.133333zM98.986667 819.2h34.133333v68.266667h-34.133333zM395.946667 819.2h34.133333v102.4h-34.133333zM494.933333 819.2h34.133334v68.266667h-34.133334zM593.92 819.2h34.133333v102.4h-34.133333zM692.906667 819.2h34.133333v68.266667h-34.133333zM791.893333 819.2h34.133334v102.4h-34.133334zM890.88 819.2h34.133333v68.266667h-34.133333z" fill="#FFFFFF" p-id="5949"></path></svg>