<?xml version="1.0" standalone="no"?><!DOCTYPE svg PUBLIC "-//W3C//DTD SVG 1.1//EN" "http://www.w3.org/Graphics/SVG/1.1/DTD/svg11.dtd"><svg t="1729411913465" class="icon" viewBox="0 0 1024 1024" version="1.1" xmlns="http://www.w3.org/2000/svg" p-id="13373" xmlns:xlink="http://www.w3.org/1999/xlink" width="200" height="200"><path d="M790.8864 233.0624V134.144a32 32 0 0 1 32-31.744h169.1136c17.664 0 32 14.336 32 32v169.0624c0 17.7152-14.336 32-32 32h-52.5824v3.328a32.1024 32.1024 0 0 1 0 3.2256v448.8704h52.5824c17.664 0 32 14.336 32 32v169.0624c0 17.664-14.336 32-32 32h-169.1136a32 32 0 0 1-32-32v-52.5824H233.1136v52.5824c0 17.664-14.336 32-32 32H32A32 32 0 0 1 0 991.9488v-169.0624c0-17.7152 14.336-32 32-32h52.5824V233.0624H32A32 32 0 0 1 0 201.0624V32C0 14.336 14.336 0 32 0h169.1136c17.664 0 32 14.336 32 32v52.5312L251.904 102.4l209.3568 209.3568 329.6768-78.6944z m-130.048 101.2224L449.4336 394.0864l-300.8512 300.8512v95.9488h39.168l473.088-456.6016zM233.1136 177.7664v23.296c0 17.7152-14.336 32-32 32H148.5824v135.4752L286.208 230.912 233.1136 177.7664z m98.3552 98.3552l72.704 72.704-255.5904 255.6416v-146.432a32.1536 32.1536 0 0 0 5.2736-4.3008l177.6128-177.6128zM854.8864 166.4h105.1136v105.0624h-105.1136V166.4z m-790.8864-102.4v105.0624h105.1136V117.76v-1.2288V64H64z m0 895.9488h105.1136v-51.3536-1.2288V854.8352H64v105.1136z m811.4176-398.6432V417.6896l-457.728 457.728h145.664a32 32 0 0 1 5.632-7.68l306.432-306.432z m84.5824 398.6432v-105.0624h-105.1136v105.0624h105.1136z m-137.1136-169.0624a32 32 0 0 0-32 32v52.48H651.776l223.5904-223.5392v139.0592h-52.5312z m52.736-455.168L327.168 875.3664H233.1136v-39.424L792.576 296.8064v12.3392c0 17.92 14.7456 26.624 26.1632 26.624h56.8832z" fill="#cdcdcd" p-id="13374"></path></svg>