<?xml version="1.0" standalone="no"?><!DOCTYPE svg PUBLIC "-//W3C//DTD SVG 1.1//EN" "http://www.w3.org/Graphics/SVG/1.1/DTD/svg11.dtd"><svg t="1713947494863" class="icon" viewBox="0 0 1024 1024" version="1.1" xmlns="http://www.w3.org/2000/svg" p-id="5613" xmlns:xlink="http://www.w3.org/1999/xlink" width="200" height="200"><path d="M671.232 243.053714a18.285714 18.285714 0 0 1 0 25.892572l-438.857143 438.857143a18.285714 18.285714 0 0 1-25.892571-25.892572l438.857143-438.857143a18.285714 18.285714 0 0 1 25.892571 0z m74.422857 31.670857a18.285714 18.285714 0 0 1 21.906286 13.787429l91.428571 402.285714a18.285714 18.285714 0 1 1-35.693714 8.118857l-91.428571-402.285714a18.285714 18.285714 0 0 1 13.787428-21.906286zM237.714286 768a18.285714 18.285714 0 0 1 18.285714-18.285714h512a18.285714 18.285714 0 0 1 0 36.571428H256a18.285714 18.285714 0 0 1-18.285714-18.285714z" fill="#265771" p-id="5614"></path><path d="M303.323429 605.037714a18.285714 18.285714 0 0 1 24.173714 9.142857l61.220571 135.131429a18.285714 18.285714 0 0 1-33.28 15.104l-61.257143-135.168a18.285714 18.285714 0 0 1 9.142858-24.210286zM395.702857 513.206857a18.285714 18.285714 0 0 1 23.625143 10.496l91.428571 237.714286a18.285714 18.285714 0 1 1-34.121142 13.165714l-91.428572-237.714286a18.285714 18.285714 0 0 1 10.496-23.661714zM487.094857 421.814857a18.285714 18.285714 0 0 1 23.661714 10.422857l128 329.142857a18.285714 18.285714 0 0 1-34.084571 13.238858l-128-329.142858a18.285714 18.285714 0 0 1 10.422857-23.661714zM593.261714 302.409143a18.285714 18.285714 0 0 1 23.405715 10.971428l157.403428 437.284572a18.285714 18.285714 0 0 1-34.377143 12.397714L582.217143 325.778286a18.285714 18.285714 0 0 1 10.971428-23.405715zM728.246857 164.571429a51.675429 51.675429 0 1 0 0 103.350857 51.675429 51.675429 0 0 0 0-103.350857zM640 216.246857a88.246857 88.246857 0 1 1 176.493714 0 88.246857 88.246857 0 0 1-176.493714 0zM179.675429 713.142857a51.675429 51.675429 0 1 0 0 103.350857 51.675429 51.675429 0 0 0 0-103.350857zM91.428571 764.818286a88.246857 88.246857 0 1 1 176.493715 0 88.246857 88.246857 0 0 1-176.493715 0z" fill="#e0620d" p-id="5615"></path><path d="M837.961143 713.142857a51.675429 51.675429 0 1 0 0 103.350857 51.675429 51.675429 0 0 0 0-103.350857zM749.714286 764.818286a88.246857 88.246857 0 1 1 176.493714 0 88.246857 88.246857 0 0 1-176.493714 0z" fill="#265771" p-id="5616"></path></svg>