<?xml version="1.0" standalone="no"?><!DOCTYPE svg PUBLIC "-//W3C//DTD SVG 1.1//EN" "http://www.w3.org/Graphics/SVG/1.1/DTD/svg11.dtd"><svg t="1713947486868" class="icon" viewBox="0 0 1024 1024" version="1.1" xmlns="http://www.w3.org/2000/svg" p-id="5127" xmlns:xlink="http://www.w3.org/1999/xlink" width="200" height="200"><path d="M843.9 407.2c5.5 2.4 10.8 5.6 15.7 9.6 10.4 8.5 19.4 20.6 25.7 36.5 15.3 38.4 13.4 67.4 0.5 90.5-7.6 13.7-19 24.7-32.8 34 3.1 2.8 5.9 5.9 8.5 9.3 0.4 0.4 0.8 0.9 1.1 1.4 1.6 2.2 3.1 4.5 4.6 7 8.4 14.4 7.8 35.9 2 56.9-5.9 21.3-17.4 43.5-30 56.5-27.8 28.8-60.8 48.4-97 54.8-10.3 1.8-20.9 2.6-31.6 2.1l7.2 36.4c2 9.6-4.2 19.1-13.8 21.2l-29.5 6.4c-5.9 1.3-12.4-0.5-16.9-5.2l-86.6-92c-15 4.6-29.1 5.8-41.7 2.3-10.7-3-19.7-8.9-26.9-18.3-9 6.7-18.2 11-30.8 11.8-26.8 1.9-51.6-0.9-73.1-7.6-22.8-7.1-42.1-18.7-56.3-33.9-12.5-13.4-17.1-26.5-20.6-41.8-9.2 3.6-19 6.7-29 8.9-15.8 3.4-32.2 4.6-47.7 2.1-7.6-1.3-14.9-3.5-21.8-6.6-13.7-6.3-25.4-16.1-33-28.2-3.1-5-5.6-10.4-7.3-16.1-22.4-14.5-37.1-34.4-45.6-56.8-8.3-21.9-10.6-46-8.1-69.3 2.5-23 9.5-45.4 19.9-64.2 11-20 25.9-36.2 43.2-45.3 14.5-37.9 37.4-64.8 66.6-83.5 28.7-18.4 63-28.4 100.9-33.2 15.9-11.7 35.4-21.3 58-27.9 42.3-12.3 95.7-13.9 156.1 2.6 10.6 2.9 20.7 5.5 30.9 8.1 59.4 15.3 117.7 30.3 167.2 72.8 1.7 1.5 4.4 3.8 7.2 6.1 25.3 21.1 51.6 43.3 64.8 92.6zM791.8 453c-6.2 7.7-17.6 8.9-25.2 2.6-7.7-6.3-8.9-17.6-2.6-25.2 9.1-11.2 20-19.2 31.5-23.8 3.1-1.3 6.3-2.2 9.5-3-11.5-30.2-30.6-46.3-49.2-61.9-2.1-1.8-4.2-3.6-7.3-6.2-43.3-37.2-97.6-51.2-152.7-65.4-10.6-2.7-21.2-5.5-31.4-8.2-53.5-14.6-100.2-13.4-136.7-2.8-17.9 5.2-33.2 12.5-45.5 21.3-1.9 2.6-4.6 4.7-7.6 5.9-11.7 9.9-19.8 21.1-23.9 32.6-3.3 9.4-13.6 14.3-22.9 11-9.4-3.3-14.3-13.6-11-22.9 1.2-3.4 2.6-6.8 4.3-10.1-15.7 4.6-30.1 10.9-42.9 19.1-17.5 11.2-32.2 26.3-43.3 46.5l1 0.1c9.8 1.6 16.5 10.7 14.9 20.5-1.6 9.8-10.7 16.5-20.6 14.9-3.2-0.5-6.5-0.6-9.7-0.4-2.8 0.2-5.3 0.7-7.5 1.6-12.4 4.7-23.8 16.7-32.5 32.5-8.1 14.7-13.7 32.4-15.7 50.6-1.9 18-0.3 36.3 6 52.8 3.5 9.1 8.4 17.7 15 25.2l0.9-2.1c4.1-9 14.8-13 23.8-8.9s13 14.8 8.9 23.8c-1.4 3.1-2.4 6.2-2.9 9.1-0.3 2-0.4 4.1-0.3 6 0.5 1.7 0.8 3.4 0.8 5.2 0.7 2.9 1.9 5.7 3.5 8.2 3.9 6.2 10.1 11.3 17.5 14.7 3.9 1.8 8.2 3.1 12.6 3.8 10.6 1.7 22.5 0.8 34.4-1.8 15-3.3 29.4-9 40.9-15.1 8.7-4.7 19.6-1.4 24.3 7.4 0.8 1.4 1.3 2.9 1.6 4.4h0.1c0.8 3.7 1.7 7.7 2.5 11.6 3.1 14.7 5.6 26.4 14 35.4 9.9 10.5 23.9 18.8 40.8 24.1 17.4 5.4 37.7 7.6 60 6.1 7.9-0.6 15.3-7.3 26.3-17.3l0.5-0.5c7.4-6.7 18.7-6.1 25.4 1.2 1.9 2.1 3.2 4.5 3.9 7 3.3 10.5 8 15.8 13.6 17.4 7.4 2.1 18-0.2 30.5-5.2 7.1-2.8 14.9-0.8 19.8 4.4l87.6 93 2.3-0.5-6.5-32.5c-12.2-3.5-24.5-8.6-36.9-15.3-8.8-4.7-12-15.6-7.3-24.3 4.7-8.7 15.6-12 24.3-7.3 29.2 15.8 57.3 20.2 83.2 15.6 28.4-5 54.7-20.8 77.3-44.2 8.6-8.9 16.8-25.1 21.2-41.1 3.5-12.5 4.6-23.9 1.5-29.3-0.8-1.3-1.6-2.5-2.5-3.7l-0.6-0.9c-5-6.4-11.9-10.9-20.3-13.9-1.1-0.3-2.3-0.6-3.3-1.1-17.9-5.2-41.5-4-66.6 1.1-43.6 8.8-90.7 29.1-123.8 48.2-9.4 5.4-17.3 10.5-23.4 15.1-7.9 5.9-19.2 4.2-25-3.8-5.9-8-4.2-19.2 3.8-25 7.7-5.7 16.7-11.6 26.7-17.3 35.7-20.7 86.9-42.7 134.8-52.3 28.4-5.7 55.8-7 79.1-1.4 17.8-8.7 32.2-18.9 39.6-32.1 7.8-13.9 8.3-32.8-2.4-59.7-3.9-9.8-9.1-17.1-15-21.8-3.5-2.9-7.3-4.8-11.1-5.9-0.7-0.1-1.4-0.3-2.1-0.5-0.2 0-0.4-0.1-0.7-0.1-4.7-0.7-9.6-0.1-14.4 1.8-5.9 2.3-11.7 6.7-16.9 13z" fill="#265771" p-id="5128"></path><path d="M575.6 506.6c-14.1 6.9-24.6-14.6-10.5-21.5 7.7-3.8 15.1-6.1 22.2-7.1 5.5-45.1 43.5-71 87.7-67.3 13.3-34 54.9-44.3 88.9-26.1 13.9 7.4 2.6 28.5-11.3 21.1-16-8.6-36.1-8.5-48.3 3.2-13.7 13.1-10.4 33.4-1.4 50.2 7.4 13.9-13.7 25.1-21.1 11.3-6.8-12.8-10.1-24.9-10.6-35.9-30.2-2.1-55.5 14.4-60 45.7 12.2 4.2 22.8 13 32 26.6 8.8 13.1-11.1 26.4-19.9 13.3-12.8-19-27.2-23.5-47.7-13.5z m-164 65.6c7.9 5.5 16.2 10 24.8 13.3-2.1 20.2-12.1 35.9-27.8 48.5-5.2 4.1-6 11.7-1.9 16.8 4.1 5.2 11.6 6 16.8 1.9 7.1-5.6 13.1-11.7 18.1-18.2 13-3.1 26.2-3.4 37.3-0.8 9.9 2.3 17.9 6.9 21.5 13.8 7.4 14 28.5 2.8 21.2-11.2-12-22.7-40.7-29.7-65.8-28.1 1.9-5.7 3.3-11.5 4.1-17.6 25.9 1.6 46.8-11.6 60.7-35.9 9.3 7.5 16.3 17.6 19.8 27.9 5.1 14.9 27.8 7.2 22.7-7.8-11.8-34.4-47.6-61.5-87.1-55.8-15.6 2.3-12.2 26 3.5 23.7 6.9-1 13.5-0.6 19.7 1-18.4 31.5-47.3 26.8-74.1 8.4-5.5-3.7-12.9-2.3-16.7 3.1-3.7 5.8-2.3 13.3 3.2 17zM724 468.6c21.4 24 20.9 40.3-6.3 57.4-13.3 8.4-0.6 28.6 12.8 20.3 13.2-8.3 22-17.2 27.2-26.7 9.2 1.7 17.9 5.2 22.1 13.5 6.8 13.4 27.2 4.2 21.8-9.7 7.3-14.7 17.5-23.5 34-22.5 15.8 0.9 17.1-23 1.4-23.9-22.7-1.3-40.4 8.9-52.2 27.6-6.4-4-13.7-6.7-21.6-8.2-0.6-14.6-8.3-29.2-21.2-43.6-10.6-11.9-28.5 4-18 15.8z m-116.9 91.2c-6.1-2.5-9.1-9.5-6.6-15.6s9.5-9.1 15.6-6.6c8.5 3.5 15.2 8.3 21 15 10.3 11.9-7.8 27.6-18.1 15.7-3.1-3.6-7.4-6.7-11.9-8.5zM274 498.6c16.3 23.8 47.2 26.6 74.9 26.1-8.8 12-16.1 25.4-20.7 41-4.4 15.1 18.6 21.8 23 6.7 2.7-9.3 6.6-17.4 10.8-24.3 15-24.7 41.5-51.9 73.5-35.5 5.7 3 12.8 0.8 15.9-4.7 8.4-13 17-20.8 25.8-24.4 8.3-3.4 17.3-3.2 26.7-0.3 5.3 1.6 11-0.6 13.7-5.2 13.3-21 36.5-34.5 59.1-43.5 4.1-1.6 6.7-5.2 7.4-9.1 0.8-4.4 14.9-16.2 20.6-22.7 10.5-12.1 22.1-24.7 21.8-52 22.4 6.5 45.6 0.3 69.1-16.4 5.4-3.8 6.7-11.3 2.8-16.7-3.8-5.4-11.3-6.6-16.7-2.8-29.7 21.1-53 18.9-74.8-5.1-10.7-11.7-28.4 4.5-17.7 16.1 3.9 4.3 7.9 8.1 12.1 11.4 4.4 28.1-5.1 38.9-13.3 48.4l-10.3 10.6c-6.3 6-11.9 11.3-15 18.4-7.6 3.2-15 6.8-21.9 10.8-10.7-27.2-27.4-45.5-62.6-44.1-15.8 0.6-14.9 24.5 0.8 23.9 26.1-1 33.9 13.3 41.4 34.3-6.6 5.5-12.6 11.7-18 18.7-26.6-5.1-48.5 6.2-65.7 29-11.6-4-22.5-4.3-32.6-2.4 6.4-15 10.4-30.7 8.3-45.5-2.3-15.6-26-12.2-23.7 3.4 2.5 17.6-9.6 40.7-18.9 57.2-23.4 1.5-62.8 4.6-76-14.7-8.9-13.1-28.7 0.4-19.8 13.4z m-51.5-17.8c4.1-5.2 11.6-6.2 16.8-2.2 5.3 4 6.2 11.6 2.2 16.8-10 12.9 6.6 47.6 33.5 34.7 14.2-6.8 24.5 14.8 10.3 21.6-49.7 23.7-88.3-38-62.8-70.9z m30.9-36.2c-7 16.1-38.5 3.3-13-22.6 19.2-19.5 56.3-23.9 76.9-3.6 11.2 11.1-5.6 28.1-16.8 17.1-12.5-12.5-40.6-5.5-47.1 9.1z m171.5-75.2c-2 3.9-3.6 8.2-5 13-4.3 15.2 18.8 21.7 23.1 6.5 5.5-19.5 21.6-28.4 34.4-35.4 13.1-7.2 26.6-9.1 39.8-2.5 9.6 4.8 20.1-4.6 16.6-14.7-5.7-16 3.6-31.2 14-42.9 10.5-11.8-7.4-27.7-17.9-15.9-11.3 12.7-20.8 28.4-21.7 46-12.3-1.6-24.6 0.6-36.2 5.9-7.4-19.1-23-31.6-43.8-38.7-14.9-5.1-22.6 17.6-7.7 22.7 15.3 5.2 26.1 13.6 30.3 28-3.9 2.6-7.7 5.5-11.4 8.9-41.9-30.8-123.5 21-97.3 77 6.7 14.3 28.3 4.1 21.7-10.1-15.2-32.3 37.4-64 61.1-47.8zM681.2 666c-4 5.2-11.6 6.2-16.8 2.2-15.1-11.6 8.4-35.9 36.1-31.6 3.2 0.5 6.3 1.3 9.4 2.4 20.4-26 61.1-36.4 84.2-12.9 11 11.2-6 28-17.1 16.8-11.9-12.1-35.1-4.2-46.8 9 23 23.3 10.2 55-6.8 46.9-6-2.8-8.5-10-5.6-15.9 6.1-12.5-24.1-33.1-36.6-16.9z" fill="#265771" p-id="5129"></path></svg>