<?xml version="1.0" standalone="no"?><!DOCTYPE svg PUBLIC "-//W3C//DTD SVG 1.1//EN" "http://www.w3.org/Graphics/SVG/1.1/DTD/svg11.dtd"><svg t="1713947509755" class="icon" viewBox="0 0 1024 1024" version="1.1" xmlns="http://www.w3.org/2000/svg" p-id="6105" xmlns:xlink="http://www.w3.org/1999/xlink" width="200" height="200"><path d="M22.35 726.269C149.902 153.291 320.567 206.65 582.524 517.901c198.683 236.069 237.254 19.237 346.601-185.062l89.233 36.422c-47.835 87.586-225.478 603.81-446.593 291.062-251.2-355.299-361.643-277.91-420.428 77.35L22.35 726.269z" fill="#265771" p-id="6106"></path><path d="M739.665 1007.108c-70.523 0-127.693-57.17-127.693-127.693s57.17-127.693 127.693-127.693 127.693 57.17 127.693 127.693-57.17 127.693-127.693 127.693z m67.693-127.693c0-37.386-30.307-67.693-67.693-67.693-37.386 0-67.693 30.307-67.693 67.693 0 37.386 30.307 67.693 67.693 67.693 37.386 0 67.693-30.307 67.693-67.693zM278.877 298.42c-70.523 0-127.693-57.17-127.693-127.693s57.17-127.693 127.693-127.693 127.693 57.17 127.693 127.693S349.4 298.42 278.877 298.42z m67.693-127.693c0-37.386-30.307-67.693-67.693-67.693s-67.693 30.307-67.693 67.693 30.307 67.693 67.693 67.693 67.693-30.308 67.693-67.693z" fill="#FF8E5C" p-id="6107"></path></svg>