<?xml version="1.0" standalone="no"?><!DOCTYPE svg PUBLIC "-//W3C//DTD SVG 1.1//EN" "http://www.w3.org/Graphics/SVG/1.1/DTD/svg11.dtd"><svg t="1713947482204" class="icon" viewBox="0 0 1024 1024" version="1.1" xmlns="http://www.w3.org/2000/svg" p-id="4970" xmlns:xlink="http://www.w3.org/1999/xlink" width="200" height="200"><path d="M0.280156 946.509753a77.211862 77.211862 0 0 1 43.955561-69.817787c-1.465185-35.50519-1.328889-174.459282 82.220751-246.832625a207.102249 207.102249 0 0 1 188.020766-36.220745c139.328907 30.053337 231.431141 44.296302 292.321519 33.83556V626.963045a76.905195 76.905195 0 0 1 94.214827-75.235566 237.291883 237.291883 0 0 0 10.051854-33.392597 435.02376 435.02376 0 0 0-9.336298-161.920021c-14.379261-81.096307-29.269633-164.884466 17.991113-227.240029a224.275585 224.275585 0 0 1 152.72002-75.474084 77.211862 77.211862 0 1 1 6.337779 61.640008 164.680021 164.680021 0 0 0-109.037051 51.111118c-31.041486 41.059265-19.081484 108.321496-6.440001 179.502245a475.87858 475.87858 0 0 1 8.757038 186.317061 273.137813 273.137813 0 0 1-20.205929 58.98223 77.314084 77.314084 0 0 1-68.148157 113.091867 76.36001 76.36001 0 0 1-50.497784-18.979262q-10.597038 2.521482-22.045929 4.191112a501.740806 501.740806 0 0 1-136.500758-3.100741c-54.348155-7.155556-115.306682-19.694817-173.164467-32.131856a148.562982 148.562982 0 0 0-133.774832 22.182225c-63.24149 54.518526-62.253341 172.925948-61.128897 198.788174A77.143714 77.143714 0 1 1 0.280156 946.509753z" fill="#265771" p-id="4971"></path></svg>