<?xml version="1.0" standalone="no"?><!DOCTYPE svg PUBLIC "-//W3C//DTD SVG 1.1//EN" "http://www.w3.org/Graphics/SVG/1.1/DTD/svg11.dtd"><svg t="1713947477942" class="icon" viewBox="0 0 1024 1024" version="1.1" xmlns="http://www.w3.org/2000/svg" p-id="4805" xmlns:xlink="http://www.w3.org/1999/xlink" width="200" height="200"><path d="M334.528 288a32 32 0 0 1-31.488-37.792l23.488-127.968a32 32 0 0 1 31.456-26.24h305.088a32 32 0 0 1 31.456 26.24l23.488 128A32 32 0 0 1 686.528 288z m0-32z m335.84-88.192L686.528 256l-23.456-128z" fill="#265771" p-id="4806"></path><path d="M648.128 224l-11.744-64H384.64l-11.744 64h275.2m38.4 64h-352a32 32 0 0 1-31.488-37.76l23.456-128a32 32 0 0 1 31.488-26.24h305.088a32 32 0 0 1 31.488 26.24l23.456 128A32 32 0 0 1 686.496 288z" fill="#265771" p-id="4807"></path><path d="M864 288H160a32 32 0 0 1 0-64h704a32 32 0 0 1 0 64z" fill="#265771" p-id="4808"></path><path d="M256 224h512a32 32 0 0 1 32 34.08l-35.456 547.456a97.088 97.088 0 0 1-96.8 90.496h-311.36a97.088 97.088 0 0 1-96.8-90.496L224.128 258.08a32 32 0 0 1 32-34.08z m477.856 64H290.144l33.248 513.376a32.96 32.96 0 0 0 32.928 30.624h311.36a32.96 32.96 0 0 0 32.928-30.624z" fill="#265771" p-id="4809"></path><path d="M593.056 754.816h-165.056a32 32 0 0 1 0-64h165.056a32 32 0 0 1 0 64z" fill="#FE9C23" p-id="4810"></path></svg>