<?xml version="1.0" standalone="no"?><!DOCTYPE svg PUBLIC "-//W3C//DTD SVG 1.1//EN" "http://www.w3.org/Graphics/SVG/1.1/DTD/svg11.dtd"><svg t="1724984824969" class="icon" viewBox="0 0 1024 1024" version="1.1" xmlns="http://www.w3.org/2000/svg" p-id="10698" xmlns:xlink="http://www.w3.org/1999/xlink" width="200" height="200"><path d="M238.933333 460.8h537.6v102.4H238.933333zM187.733333 119.466667l68.266667 68.266666c59.733333-42.666667 128-76.8 204.8-85.333333V0C366.933333 8.533333 264.533333 51.2 187.733333 119.466667z m-68.266666 68.266666C51.2 264.533333 8.533333 366.933333 0 460.8h102.4c8.533333-68.266667 34.133333-145.066667 85.333333-196.266667l-68.266666-76.8z m-17.066667 375.466667H0c8.533333 93.866667 51.2 196.266667 110.933333 273.066667l76.8-68.266667c-42.666667-59.733333-76.8-128-85.333333-204.8zM563.2 0v102.4c68.266667 8.533333 145.066667 34.133333 196.266667 85.333333l76.8-68.266666C759.466667 51.2 657.066667 17.066667 563.2 0z m196.266667 836.266667c-59.733333 42.666667-128 76.8-196.266667 85.333333V1024c93.866667-8.533333 196.266667-51.2 273.066667-110.933333l-76.8-76.8zM1024 460.8c-8.533333-93.866667-42.666667-196.266667-110.933333-273.066667l-76.8 76.8c42.666667 59.733333 76.8 128 85.333333 196.266667H1024zM836.266667 768l68.266666 76.8c68.266667-76.8 102.4-179.2 110.933334-273.066667h-102.4c0 68.266667-34.133333 136.533333-76.8 196.266667z m-571.733334 68.266667l-68.266666 68.266666c76.8 68.266667 179.2 102.4 273.066666 110.933334v-102.4c-85.333333 0-153.6-34.133333-204.8-76.8z" p-id="10699" fill="#cdcdcd"></path></svg>