<?xml version="1.0" standalone="no"?><!DOCTYPE svg PUBLIC "-//W3C//DTD SVG 1.1//EN" "http://www.w3.org/Graphics/SVG/1.1/DTD/svg11.dtd"><svg t="1729410478501" class="icon" viewBox="0 0 1024 1024" version="1.1" xmlns="http://www.w3.org/2000/svg" p-id="5224" xmlns:xlink="http://www.w3.org/1999/xlink" width="200" height="200"><path d="M512 911.086537c-105.761996 0-205.184125-41.534863-279.952417-116.952194-74.720126-75.370369-115.870864-175.569176-115.870864-282.134343 0-106.566371 41.150738-206.763974 115.870864-282.134343 74.768292-75.418535 174.190421-116.953398 279.952417-116.953398 105.760792 0 205.184125 41.534863 279.951213 116.953398 74.72133 75.370369 115.873272 175.567972 115.873272 282.134343 0 106.565167-41.151942 206.763974-115.873272 282.134343-74.765884 75.417331-174.190421 116.952194-279.951213 116.952194z m0-757.057256c-195.585818 0-354.707464 160.585896-354.707464 357.971923 0 197.384823 159.121645 357.970719 354.707464 357.970719 195.587022 0 354.707464-160.585896 354.707464-357.970719 0.001204-197.387232-159.120441-357.971923-354.707464-357.971923z" p-id="5225" fill="#cdcdcd"></path><path d="M884.613225 110.30045l29.073079 29.071876L139.371121 913.687508l-29.071875-29.071875z" p-id="5226" fill="#cdcdcd"></path></svg>