<?xml version="1.0" standalone="no"?><!DOCTYPE svg PUBLIC "-//W3C//DTD SVG 1.1//EN" "http://www.w3.org/Graphics/SVG/1.1/DTD/svg11.dtd"><svg t="1723556192110" class="icon" viewBox="0 0 1319 1024" version="1.1" xmlns="http://www.w3.org/2000/svg" p-id="5139" xmlns:xlink="http://www.w3.org/1999/xlink" width="257.6171875" height="200"><path d="M278.104641 161.268335l66.354956 107.457514c5.697616-5.721063 11.41868-11.442127 18.288646-14.865386 24.009709-14.865386 53.763927-16.014288 77.773636-3.423259a82.181668 82.181668 0 0 1 28.605316-30.879674c24.009709-14.865386 53.74048-15.990841 77.750189-3.423259a82.205115 82.205115 0 0 1 28.605317-30.856227 83.893298 83.893298 0 0 1 64.033705-9.144323c20.586449 5.697616 37.749639 18.288645 48.042864 36.57729l117.797632 214.891581c57.187187 105.183157 20.586449 219.463742-42.3218 285.771804-46.893962 46.893962-105.206604 73.154581-164.691595 73.154581a216.017036 216.017036 0 0 1-93.787923-21.711905l-322.513224-152.030224a77.375037 77.375037 0 0 1-41.172898-45.721613 82.392691 82.392691 0 0 1 3.423259-61.735901 13.786825 13.786825 0 0 1 8.018867-7.995421c33.154031-20.586449 99.48554-29.730772 137.23518-12.567581l-148.677306-238.924737a80.892084 80.892084 0 0 1-10.316672-60.563551c4.595608-20.563002 18.312092-38.875094 36.600737-50.293775 37.749639-22.860806 88.066861-11.442127 110.951114 26.284066z m-92.615575 11.442127c-9.16777 5.697616-16.037735 14.865386-18.312092 25.135163-2.297804 10.316672-1.172349 21.711904 4.572162 30.879674l184.129141 297.213931a20.633343 20.633343 0 0 1-2.274357 23.986262 19.273418 19.273418 0 0 1-24.033155 4.572161l-57.210634-33.154031c-20.445767-9.683603-63.189614-6.190003-90.059854 4.73629l-4.853525 2.110228c-2.297804 8.018867-2.297804 17.16319 1.148902 25.158611 3.423259 10.293225 11.41868 18.288645 20.586449 22.860806L521.695327 728.263229c86.941405 41.149452 166.989398 3.446706 212.734458-44.549264 52.615025-56.038285 84.643601-152.053672 36.57729-238.924736l-141.807341-233.203673c-11.442127-3.423259-22.860806-1.148902-33.154031 4.572162-11.442127 6.846518-18.288645 18.288645-19.460994 32.005129a22.696678 22.696678 0 0 1-13.716484 18.288645 21.782245 21.782245 0 0 1-21.711904-5.721064c-12.591029-14.841939-35.451835-18.288645-52.615025-7.971973-11.442127 6.846518-18.288645 18.288645-19.460995 31.981682a22.720125 22.720125 0 0 1-13.693037 18.288645 21.782245 21.782245 0 0 1-21.735351-5.697616c-12.591029-14.865386-35.451835-18.288645-52.615025-8.018868-9.144323 5.721063-16.014288 14.865386-18.288645 26.307513a22.649784 22.649784 0 0 1-16.014288 15.990841 21.078836 21.078836 0 0 1-20.58645-9.144323l-84.643601-137.164838c-11.442127-19.437547-36.57729-25.135164-56.038285-12.567582z m15.943948-170.576787c94.186523 0 176.086827 70.551966 190.647402 162.370344 1.125455 11.207657-5.603828 21.289859-16.811486 22.415313-11.231104 1.102008-21.313306-5.627275-22.43876-16.811485-11.207657-73.904884-76.273029-128.770819-151.397156-128.77082-84.127768 0-152.522611 68.301056-152.522612 152.288142 0 64.948137 40.352254 122.064983 102.041261 144.45685 10.082202 3.376365 15.709477 14.560575 12.333112 25.768232-4.454926 7.831292-12.333112 13.43512-20.164403 13.43512-2.25091 0-4.50182 0-6.729284-1.125455-76.273029-26.87024-127.856387-99.649669-127.856387-181.409292 0-106.378953 86.355231-192.616949 192.898313-192.616949z" fill="#265771" p-id="5140"></path></svg>