<?xml version="1.0" standalone="no"?><!DOCTYPE svg PUBLIC "-//W3C//DTD SVG 1.1//EN" "http://www.w3.org/Graphics/SVG/1.1/DTD/svg11.dtd"><svg t="1713947474788" class="icon" viewBox="0 0 1024 1024" version="1.1" xmlns="http://www.w3.org/2000/svg" p-id="4631" xmlns:xlink="http://www.w3.org/1999/xlink" width="200" height="200"><path d="M116.084364 946.641455a27.927273 27.927273 0 0 1-27.927273-27.927273v-238.638546l3.909818-14.242909 137.216-231.889454 4.049455-5.306182 181.108363-185.437091 5.352728-4.282182 237.754181-146.432 14.661819-4.142545h235.426909a27.927273 27.927273 0 0 1 0 55.854545h-227.514182l-228.072727 140.474182-176.407273 180.782545-131.630546 222.440728v230.958545a27.927273 27.927273 0 0 1-27.927272 27.787637z" fill="#265771" p-id="4632"></path><path d="M442.181818 214.109091a41.890909 41.890909 0 1 0 41.890909 41.890909 41.890909 41.890909 0 0 0-41.890909-41.890909m0-27.927273a69.818182 69.818182 0 1 1-69.818182 69.818182 69.818182 69.818182 0 0 1 69.818182-69.818182zM116.363636 865.745455a41.890909 41.890909 0 1 0 41.890909 41.890909 41.890909 41.890909 0 0 0-41.890909-41.890909m0-27.927273a69.818182 69.818182 0 1 1-69.818181 69.818182 69.818182 69.818182 0 0 1 69.818181-69.818182zM116.363636 633.018182a41.890909 41.890909 0 1 0 41.890909 41.890909 41.890909 41.890909 0 0 0-41.890909-41.890909m0-27.927273a69.818182 69.818182 0 1 1-69.818181 69.818182 69.818182 69.818182 0 0 1 69.818181-69.818182z" fill="#366CD9" p-id="4633"></path><path d="M674.909091 116.363636m-69.818182 0a69.818182 69.818182 0 1 0 139.636364 0 69.818182 69.818182 0 1 0-139.636364 0Z" fill="#FFFFFF" p-id="4634"></path><path d="M674.909091 74.472727a41.890909 41.890909 0 1 0 41.890909 41.890909 41.890909 41.890909 0 0 0-41.890909-41.890909m0-27.927272a69.818182 69.818182 0 1 1-69.818182 69.818181 69.818182 69.818182 0 0 1 69.818182-69.818181z" fill="#265771" p-id="4635"></path><path d="M907.636364 116.363636m-69.818182 0a69.818182 69.818182 0 1 0 139.636363 0 69.818182 69.818182 0 1 0-139.636363 0Z" fill="#FFFFFF" p-id="4636"></path><path d="M907.636364 74.472727a41.890909 41.890909 0 1 0 41.890909 41.890909 41.890909 41.890909 0 0 0-41.890909-41.890909m0-27.927272a69.818182 69.818182 0 1 1-69.818182 69.818181 69.818182 69.818182 0 0 1 69.818182-69.818181z" fill="#265771" p-id="4637"></path><path d="M442.181818 256m-69.818182 0a69.818182 69.818182 0 1 0 139.636364 0 69.818182 69.818182 0 1 0-139.636364 0Z" fill="#FFFFFF" p-id="4638"></path><path d="M442.181818 214.109091a41.890909 41.890909 0 1 0 41.890909 41.890909 41.890909 41.890909 0 0 0-41.890909-41.890909m0-27.927273a69.818182 69.818182 0 1 1-69.818182 69.818182 69.818182 69.818182 0 0 1 69.818182-69.818182z" fill="#265771" p-id="4639"></path><path d="M256 442.181818m-69.818182 0a69.818182 69.818182 0 1 0 139.636364 0 69.818182 69.818182 0 1 0-139.636364 0Z" fill="#FFFFFF" p-id="4640"></path><path d="M256 400.290909a41.890909 41.890909 0 1 0 41.890909 41.890909 41.890909 41.890909 0 0 0-41.890909-41.890909m0-27.927273a69.818182 69.818182 0 1 1-69.818182 69.818182 69.818182 69.818182 0 0 1 69.818182-69.818182z" fill="#265771" p-id="4641"></path><path d="M116.363636 674.909091m-69.818181 0a69.818182 69.818182 0 1 0 139.636363 0 69.818182 69.818182 0 1 0-139.636363 0Z" fill="#FFFFFF" p-id="4642"></path><path d="M116.363636 633.018182a41.890909 41.890909 0 1 0 41.890909 41.890909 41.890909 41.890909 0 0 0-41.890909-41.890909m0-27.927273a69.818182 69.818182 0 1 1-69.818181 69.818182 69.818182 69.818182 0 0 1 69.818181-69.818182z" fill="#265771" p-id="4643"></path><path d="M116.363636 907.636364m-69.818181 0a69.818182 69.818182 0 1 0 139.636363 0 69.818182 69.818182 0 1 0-139.636363 0Z" fill="#FFFFFF" p-id="4644"></path><path d="M116.363636 865.745455a41.890909 41.890909 0 1 0 41.890909 41.890909 41.890909 41.890909 0 0 0-41.890909-41.890909m0-27.927273a69.818182 69.818182 0 1 1-69.818181 69.818182 69.818182 69.818182 0 0 1 69.818181-69.818182z" fill="#265771" p-id="4645"></path></svg>