<?xml version="1.0" standalone="no"?><!DOCTYPE svg PUBLIC "-//W3C//DTD SVG 1.1//EN" "http://www.w3.org/Graphics/SVG/1.1/DTD/svg11.dtd"><svg t="1713947445942" class="icon" viewBox="0 0 1024 1024" version="1.1" xmlns="http://www.w3.org/2000/svg" p-id="3998" xmlns:xlink="http://www.w3.org/1999/xlink" width="200" height="200"><path d="M1024 512C1024 794.752 794.784 1024 512 1024 229.216 1024 0 794.752 0 512 0 229.216 229.216 0 512 0 794.784 0 1024 229.216 1024 512ZM64.192 512C64.192 759.328 264.672 959.808 512 959.808 759.328 959.808 959.808 759.328 959.808 512 959.808 264.672 759.328 64.192 512 64.192 264.672 64.192 64.192 264.672 64.192 512ZM706.272 512 480 738.272 434.752 693.024 615.744 512 434.752 330.976 480 285.728 706.272 512Z" fill="#265771" p-id="3999"></path></svg>