<?xml version="1.0" encoding="UTF-8"?>
<svg id="Layer_1" xmlns="http://www.w3.org/2000/svg" version="1.1" viewBox="0 0 200 200">
  <!-- Generator: Adobe Illustrator 29.6.1, SVG Export Plug-In . SVG Version: 2.1.1 Build 9)  -->
  <defs>
    <style>
      .st0 {
        fill: #085874;
      }
    </style>
  </defs>
  <path class="st0" d="M166.92,16.35h-52.29c-.23-.04-.47-.06-.72-.06s-.48.02-.71.06H32.87c-9.25,0-16.75,7.5-16.75,16.75v134.05c0,9.25,7.5,16.75,16.75,16.75h31.65c9.25,0,16.75-7.5,16.75-16.75v-46.53c-.01-2.42-1.98-4.39-4.41-4.39s-4.4,1.96-4.41,4.39h0v.02h0v45.63c0,4.88-3.95,8.82-8.82,8.82h-29.89c-4.87,0-8.82-3.95-8.82-8.82v-18.05h31.13c2.57,0,4.66-2.09,4.66-4.65s-2.08-4.65-4.66-4.65h-31.13v-23.27h21.82c2.57,0,4.66-2.09,4.66-4.65s-2.08-4.65-4.66-4.65h-21.82v-23.27h31.13c2.57,0,4.66-2.08,4.66-4.65s-2.08-4.66-4.66-4.66h-31.13v-39.76c0-4.87,3.95-8.82,8.82-8.82h38.3c-.02.2-.04.4-.04.61v22.93c0,2.67,2.08,4.83,4.65,4.83s4.66-2.16,4.66-4.83v-22.93c0-.21-.01-.41-.04-.61h27.96v18.88c0,2.67,2.09,4.83,4.65,4.83s4.65-2.16,4.65-4.83v-18.88h23.31c-.02.2-.04.4-.04.61v22.93c0,2.67,2.09,4.83,4.65,4.83s4.65-2.16,4.65-4.83v-22.93c0-.21,0-.41-.04-.61h14.93c4.87,0,8.82,3.95,8.82,8.82v35.11h-85.04c-2.57,0-4.66,2.08-4.66,4.66s2.09,4.65,4.66,4.65h87.27c.41,0,.8-.05,1.17-.15.32.08.66.12,1.01.12,2.44,0,4.41-1.98,4.41-4.41v-40.86c0-9.25-7.5-16.75-16.75-16.75l.04-.03h0Z"/>
</svg>