<?xml version="1.0" standalone="no"?><!DOCTYPE svg PUBLIC "-//W3C//DTD SVG 1.1//EN" "http://www.w3.org/Graphics/SVG/1.1/DTD/svg11.dtd"><svg t="1724750389455" class="icon" viewBox="0 0 1024 1024" version="1.1" xmlns="http://www.w3.org/2000/svg" p-id="4899" xmlns:xlink="http://www.w3.org/1999/xlink" width="200" height="200"><path d="M405.333333 917.333333c-7.111111 0-14.222222-2.844444-19.911111-8.533333l-199.111111-199.111111c-11.377778-11.377778-11.377778-28.444444 0-39.822222l455.111111-455.111111c11.377778-11.377778 28.444444-11.377778 39.822222 0l199.111112 199.111111c11.377778 11.377778 11.377778 28.444444 0 39.822222l-455.111112 455.111111c-4.266667 5.688889-11.377778 8.533333-19.911111 8.533333z m-157.866666-227.555555l159.288889 159.288889 415.288888-415.288889-159.288888-159.288889-415.288889 415.288889z" fill="#cdcdcd" p-id="4900"></path><path d="M665.6 426.666667c-7.111111 0-14.222222-2.844444-19.911111-8.533334l-82.488889-82.488889c-11.377778-11.377778-11.377778-28.444444 0-39.822222 11.377778-11.377778 28.444444-11.377778 39.822222 0l82.488889 82.488889c11.377778 11.377778 11.377778 28.444444 0 39.822222-5.688889 5.688889-12.8 8.533333-19.911111 8.533334zM591.644444 500.622222c-7.111111 0-14.222222-2.844444-19.911111-8.533333l-82.488889-82.488889c-11.377778-11.377778-11.377778-28.444444 0-39.822222 11.377778-11.377778 28.444444-11.377778 39.822223 0l82.488889 82.488889c11.377778 11.377778 11.377778 28.444444 0 39.822222-5.688889 5.688889-12.8 8.533333-19.911112 8.533333zM563.2 618.666667c-7.111111 0-14.222222-2.844444-19.911111-8.533334l-128-128c-11.377778-11.377778-11.377778-28.444444 0-39.822222 11.377778-11.377778 28.444444-11.377778 39.822222 0l128 128c11.377778 11.377778 11.377778 28.444444 0 39.822222-5.688889 5.688889-12.8 8.533333-19.911111 8.533334zM443.733333 647.111111c-7.111111 0-14.222222-2.844444-19.911111-8.533333L341.333333 556.088889c-11.377778-11.377778-11.377778-28.444444 0-39.822222 11.377778-11.377778 28.444444-11.377778 39.822223 0l82.488888 82.488889c11.377778 11.377778 11.377778 28.444444 0 39.822222-4.266667 5.688889-11.377778 8.533333-19.911111 8.533333zM371.2 721.066667c-7.111111 0-14.222222-2.844444-19.911111-8.533334l-82.488889-82.488889c-11.377778-11.377778-11.377778-28.444444 0-39.822222 11.377778-11.377778 28.444444-11.377778 39.822222 0l82.488889 82.488889c11.377778 11.377778 11.377778 28.444444 0 39.822222-5.688889 5.688889-12.8 8.533333-19.911111 8.533334z" fill="#cdcdcd" p-id="4901"></path></svg>