<?xml version="1.0" standalone="no"?><!DOCTYPE svg PUBLIC "-//W3C//DTD SVG 1.1//EN" "http://www.w3.org/Graphics/SVG/1.1/DTD/svg11.dtd"><svg t="1724750426815" class="icon" viewBox="0 0 1024 1024" version="1.1" xmlns="http://www.w3.org/2000/svg" p-id="5158" xmlns:xlink="http://www.w3.org/1999/xlink" width="200" height="200"><path d="M854.633103 83.697237 586.894246 83.697237c-1.195222-0.191358-2.418073-0.290619-3.664459-0.290619-1.24434 0-2.465145 0.100284-3.65832 0.290619L168.315962 83.697237c-47.382147 0-85.770456 38.387285-85.770456 85.770456l0 686.317141c0 47.382147 38.388309 85.782735 85.770456 85.782735l162.045653 0c47.382147 0 85.772502-38.400588 85.772502-85.782735L416.134117 617.544825c-0.071631-12.402471-10.113335-22.456455-22.563902-22.456455-12.428054 0-22.515806 10.053983-22.573111 22.456455l0 0.069585c0 0.022513 0 0.022513 0 0.047072 0 0 0 0.046049 0 0.069585l0 233.540987c0 24.969695-20.224624 45.171806-45.148269 45.171806L172.831812 896.443859c-24.924669 0-45.148269-20.201088-45.148269-45.171806l0-92.394317 159.380964 0c13.173021 0 23.843034-10.682293 23.843034-23.830755 0-13.173021-10.670014-23.829731-23.843034-23.829731L127.682519 711.217251 127.682519 592.06143l111.720478 0c13.170974 0 23.840988-10.682293 23.840988-23.830755 0-13.173021-10.670014-23.831778-23.840988-23.831778L127.682519 544.398898 127.682519 425.2441l159.380964 0c13.173021 0 23.843034-10.670014 23.843034-23.830755 0-13.170974-10.670014-23.843034-23.843034-23.843034L127.682519 377.570311 127.682519 173.983543c0-24.936949 20.2236-45.149293 45.148269-45.149293L368.946398 128.83425c-0.124843 1.022283-0.195451 2.061962-0.195451 3.119037L368.750947 249.352091c0 13.648858 10.671037 24.715915 23.831778 24.715915s23.843034-11.066033 23.843034-24.715915L416.425759 131.953288c0-1.057075-0.071631-2.096754-0.195451-3.119037l143.168724 0 0 96.68504c0 13.648858 10.682293 24.715915 23.831778 24.715915 13.171997 0 23.830755-11.066033 23.830755-24.715915l0-96.68504 119.351272 0c-0.124843 1.022283-0.195451 2.061962-0.195451 3.119037L726.217385 249.352091c0 13.648858 10.68127 24.715915 23.829731 24.715915 13.174044 0 23.832801-11.066033 23.832801-24.715915L773.879917 131.953288c0-1.057075-0.070608-2.096754-0.195451-3.119037l76.435856 0c24.924669 0 45.148269 20.212344 45.148269 45.149293l0 168.875199 0 10.879792L459.838501 353.738533c-13.160741 0-23.840988 10.671037-23.840988 23.843034 0 13.160741 10.680247 23.831778 23.840988 23.831778l446.831768 0c2.075265 0 4.089132-0.26606 6.009877-0.76441 1.657756 0.387833 3.384074 0.599657 5.160533 0.599657 12.474103 0 22.575158-10.123568 22.575158-22.575158l0-35.815717L940.415838 169.468716C940.415838 122.084523 902.017296 83.697237 854.633103 83.697237z" fill="#cdcdcd" p-id="5159"></path></svg>