<?xml version="1.0" encoding="UTF-8"?>
<svg id="Layer_1" xmlns="http://www.w3.org/2000/svg" version="1.1" viewBox="0 0 200 200">
  <!-- Generator: Adobe Illustrator 29.6.1, SVG Export Plug-In . SVG Version: 2.1.1 Build 9)  -->
  <defs>
    <style>
      .st0 {
        stroke-width: 5px;
      }

      .st0, .st1 {
        fill: #085874;
        stroke: #085874;
        stroke-miterlimit: 10;
      }

      .st1 {
        stroke-width: 2px;
      }
    </style>
  </defs>
  <path class="st0" d="M162.46,16.09H37.41c-11.85,0-21.49,9.64-21.49,21.49v125.05c0,11.85,9.64,21.49,21.49,21.49h125.05c11.85,0,21.49-9.64,21.49-21.49V37.59c0-11.85-9.64-21.49-21.49-21.49ZM37.41,23.91h125.05c7.54,0,13.68,6.14,13.68,13.68v26.24c-28.27.97-54.7,12.42-74.78,32.5-9.43,9.43-16.96,20.26-22.39,32.02-15.74-13.43-38.6-14.27-55.24-2.53V37.59c0-7.54,6.14-13.68,13.68-13.68ZM23.73,162.64v-26.68c14.46-14.07,37.6-14.05,52.04.06-4.59,12.3-6.98,25.47-6.98,39,0,.46.08.89.23,1.3h-31.61c-7.54,0-13.68-6.14-13.68-13.68ZM162.46,176.31h-86.08c.14-.41.23-.84.23-1.3,0-27.65,10.75-53.63,30.28-73.16,18.6-18.6,43.07-29.24,69.25-30.21v90.99c0,7.54-6.14,13.68-13.68,13.68Z"/>
  <path class="st1" d="M68.26,93.27c14.66,0,26.58-11.92,26.58-26.58s-11.92-26.58-26.58-26.58-26.58,11.92-26.58,26.58,11.92,26.58,26.58,26.58ZM68.26,47.92c10.35,0,18.77,8.42,18.77,18.77s-8.42,18.77-18.77,18.77-18.77-8.42-18.77-18.77,8.42-18.77,18.77-18.77Z"/>
</svg>